<?xml version="1.0" encoding="utf-8"?>
<!-- Generator: Adobe Illustrator 25.1.0, SVG Export Plug-In . SVG Version: 6.00 Build 0)  -->
<svg version="1.1" id="Lager_1" xmlns="http://www.w3.org/2000/svg" xmlns:xlink="http://www.w3.org/1999/xlink" x="0px" y="0px"
	 viewBox="0 0 550 500" style="enable-background:new 0 0 550 500;" xml:space="preserve">
<style type="text/css">
	.st0{fill:#B3D6C3;stroke:#000000;stroke-miterlimit:10;}
	.st1{fill:#A5C1B9;}
	.st2{fill:#FAE6D0;}
	.st3{fill:#F3D1A3;}
	.st4{fill:#F2E3CF;}
	.st5{fill:#FFFFFF;}
	.st6{opacity:0.2;fill:#5C3B26;}
	.st7{fill:#D8A57E;}
	.st8{fill:#5C3B26;}
	.st9{fill:#FFFFFF;stroke:#000000;stroke-miterlimit:10;}
</style>
<rect x="-48.35" y="-3.62" class="st0" width="599.79" height="523.16"/>
<polyline class="st1" points="774.85,632.74 293.82,131.61 341.09,215.92 84.42,295.52 365.06,647.24 "/>
<ellipse class="st2" cx="213.8" cy="241.96" rx="142.4" ry="139.92"/>
<ellipse class="st3" cx="220.26" cy="249.51" rx="142.4" ry="139.92"/>
<ellipse class="st4" cx="220.26" cy="249.51" rx="97.66" ry="95.94"/>
<ellipse class="st5" cx="220.64" cy="251.39" rx="97.66" ry="95.94"/>
<ellipse class="st5" cx="218.7" cy="245.78" rx="97.66" ry="95.94"/>
<path class="st6" d="M140.04,300.81l76.9,86.92c0,0,55.1,11.73,108.24-41.51c0,0,30.83-33.57,34.83-60.57l-52.09-80.73
	L140.04,300.81z"/>
<polygon class="st5" points="290.73,182.47 275.35,169.59 307.5,130.76 322.88,143.64 "/>
<ellipse class="st4" cx="220.64" cy="249.51" rx="97.66" ry="95.94"/>
<ellipse class="st7" cx="220.26" cy="249.51" rx="83.69" ry="84.19"/>
<polygon class="st4" points="295.76,186.69 278.24,172.01 310.39,133.18 327.91,147.86 "/>
<path class="st8" d="M295.11,257.78c0,37.07-29.87,67.12-66.72,67.12s-66.72-30.05-66.72-67.12c0-6.81,5.3-16.22,13.01-25.84
	c16.18-20.18,42.96-41.28,53.71-41.28C265.24,190.66,295.11,220.71,295.11,257.78z"/>
<g>
	<g>
		<path class="st8" d="M168.21,219.26c9.65,0,9.67-15,0-15C158.55,204.26,158.54,219.26,168.21,219.26L168.21,219.26z"/>
	</g>
</g>
<g>
	<g>
		<path class="st8" d="M196.33,197.09c9.65,0,9.67-15,0-15C186.67,182.09,186.66,197.09,196.33,197.09L196.33,197.09z"/>
	</g>
</g>
<g>
	<g>
		<path class="st8" d="M217.6,189.48c7.72,0,7.73-12,0-12C209.88,177.48,209.87,189.48,217.6,189.48L217.6,189.48z"/>
	</g>
</g>
<g>
	<g>
		<path class="st8" d="M153.77,252.93c7.72,0,7.73-12,0-12C146.05,240.93,146.03,252.93,153.77,252.93L153.77,252.93z"/>
	</g>
</g>
<g>
	<g>
		<path class="st8" d="M178.09,186.74c3.22,0,3.22-5,0-5C174.87,181.74,174.86,186.74,178.09,186.74L178.09,186.74z"/>
	</g>
</g>
<g>
	<g>
		<path class="st8" d="M218.36,173.75c3.22,0,3.22-5,0-5C215.15,168.75,215.14,173.75,218.36,173.75L218.36,173.75z"/>
	</g>
</g>
<g>
	<g>
		<path class="st8" d="M242.68,184.45c3.22,0,3.22-5,0-5C239.47,179.45,239.46,184.45,242.68,184.45L242.68,184.45z"/>
	</g>
</g>
<g>
	<g>
		<path class="st8" d="M184.93,209.68c3.22,0,3.22-5,0-5C181.71,204.68,181.7,209.68,184.93,209.68L184.93,209.68z"/>
	</g>
</g>
<g>
	<g>
		<path class="st8" d="M164.41,204.32c3.22,0,3.22-5,0-5C161.19,199.32,161.18,204.32,164.41,204.32L164.41,204.32z"/>
	</g>
</g>
<g>
	<g>
		<path class="st8" d="M150.73,232.61c3.22,0,3.22-5,0-5C147.51,227.61,147.5,232.61,150.73,232.61L150.73,232.61z"/>
	</g>
</g>
<g>
	<g>
		<path class="st8" d="M165.93,231.08c3.22,0,3.22-5,0-5C162.71,226.08,162.7,231.08,165.93,231.08L165.93,231.08z"/>
	</g>
</g>
<g>
	<g>
		<path class="st8" d="M201.65,182.16c3.22,0,3.22-5,0-5C198.43,177.16,198.42,182.16,201.65,182.16L201.65,182.16z"/>
	</g>
</g>
<g>
	<g>
		<path class="st8" d="M176.57,204.32c3.22,0,3.22-5,0-5C173.35,199.32,173.34,204.32,176.57,204.32L176.57,204.32z"/>
	</g>
</g>
<g>
	<g>
		<path class="st8" d="M185.69,198.97c3.22,0,3.22-5,0-5C182.47,193.97,182.46,198.97,185.69,198.97L185.69,198.97z"/>
	</g>
</g>
<g>
	<g>
		<path class="st8" d="M182.09,202.69c0.6,0,1.62-0.19,1.91-0.81c0.28-0.59-0.24-0.92-0.8-0.92c-0.6,0-1.62,0.19-1.91,0.81
			C181.02,202.36,181.53,202.69,182.09,202.69L182.09,202.69z"/>
	</g>
</g>
<g>
	<g>
		<path class="st8" d="M169.95,198.16c0.62,0,1.61-0.18,1.9-0.83c0.26-0.6-0.23-1.01-0.83-1.01c-0.62,0-1.61,0.18-1.9,0.83
			C168.86,197.74,169.35,198.16,169.95,198.16L169.95,198.16z"/>
	</g>
</g>
<g>
	<g>
		<path class="st8" d="M177.96,196c1.65,0,2.23-2.11,0.26-2.11C176.57,193.89,175.99,196,177.96,196L177.96,196z"/>
	</g>
</g>
<g>
	<g>
		<path class="st8" d="M182.87,192.83c0.64,0,1.59-0.18,1.9-0.84c0.28-0.6-0.24-1.04-0.84-1.04c-0.64,0-1.59,0.18-1.9,0.84
			C181.76,192.38,182.28,192.83,182.87,192.83L182.87,192.83z"/>
	</g>
</g>
<g>
	<g>
		<path class="st8" d="M189.36,183c1.65,0,2.23-2.11,0.26-2.11C187.97,180.9,187.39,183,189.36,183L189.36,183z"/>
	</g>
</g>
<g>
	<g>
		<path class="st8" d="M205.3,189.06c1.6,0,2.27-1.99,0.29-1.99C203.99,187.07,203.32,189.06,205.3,189.06L205.3,189.06z"/>
	</g>
</g>
<g>
	<g>
		<path class="st8" d="M208.65,194.9c0.54,0,1.64-0.21,1.92-0.75c0.3-0.56-0.26-0.69-0.74-0.69c-0.54,0-1.64,0.21-1.92,0.75
			C207.61,194.77,208.17,194.9,208.65,194.9L208.65,194.9z"/>
	</g>
</g>
<g>
	<g>
		<path class="st8" d="M208.67,192.65c0.56,0,1.63-0.2,1.92-0.77c0.29-0.57-0.25-0.76-0.76-0.76c-0.56,0-1.63,0.2-1.92,0.77
			C207.61,192.46,208.15,192.65,208.67,192.65L208.67,192.65z"/>
	</g>
</g>
<g>
	<g>
		<path class="st8" d="M229.71,185.81c2.13,0,0.49-4.67-1.42-4.67C226.16,181.14,227.8,185.81,229.71,185.81L229.71,185.81z"/>
	</g>
</g>
<g>
	<g>
		<path class="st8" d="M175.5,220.53c1.01,0,2.61-0.13,3.29-1.01c0.65-0.83-0.41-1.24-1.15-1.24c-1.01,0-2.61,0.13-3.29,1.01
			C173.7,220.13,174.76,220.53,175.5,220.53L175.5,220.53z"/>
	</g>
</g>
<g>
	<g>
		<path class="st8" d="M182.06,218.78c3.1,0,2.49-4.85-0.35-4.85C178.61,213.92,179.22,218.78,182.06,218.78L182.06,218.78z"/>
	</g>
</g>
<g>
	<g>
		<path class="st8" d="M157.56,218.84c0.59,0,0.6-0.4,0.01-0.4C156.98,218.44,156.97,218.84,157.56,218.84L157.56,218.84z"/>
	</g>
</g>
<g>
	<g>
		<path class="st8" d="M157.01,221.16c0.64,0-0.1-0.46-0.41-0.46C155.96,220.71,156.7,221.16,157.01,221.16L157.01,221.16z"/>
	</g>
</g>
<g>
	<g>
		<path class="st8" d="M164.6,221.94c0.65,0-0.07-0.47-0.39-0.47C163.57,221.46,164.29,221.94,164.6,221.94L164.6,221.94z"/>
	</g>
</g>
<g>
	<g>
		<path class="st8" d="M170.49,227.25c0.59,0,0.6-0.4,0-0.4C169.9,226.85,169.89,227.25,170.49,227.25L170.49,227.25z"/>
	</g>
</g>
<g>
	<g>
		<path class="st8" d="M189.38,198.98c0.43,0,0.89-0.42,0.2-0.42C189.15,198.56,188.7,198.98,189.38,198.98L189.38,198.98z"/>
	</g>
</g>
<g>
	<g>
		<path class="st8" d="M190.45,201.28c0.18,0,0.31-0.05,0.23-0.23c-0.07-0.17-0.5-0.22-0.65-0.22c-0.18,0-0.31,0.05-0.23,0.23
			C189.88,201.24,190.31,201.28,190.45,201.28L190.45,201.28z"/>
	</g>
</g>
<g>
	<g>
		<path class="st8" d="M189.78,208.95c0.23,0,0.18-0.14,0.09-0.27c-0.13-0.17-0.48-0.22-0.67-0.22c-0.23,0-0.18,0.14-0.09,0.27
			C189.23,208.9,189.58,208.95,189.78,208.95L189.78,208.95z"/>
	</g>
</g>
<g>
	<g>
		<path class="st8" d="M195.68,202.79c0.13,0,0.42-0.04,0.37-0.22c-0.05-0.17-0.48-0.18-0.6-0.18c-0.13,0-0.42,0.04-0.37,0.22
			C195.13,202.78,195.56,202.79,195.68,202.79L195.68,202.79z"/>
	</g>
</g>
<g>
	<g>
		<path class="st8" d="M152.89,216.68c1.68,0,2.2-2.2,0.24-2.2C151.44,214.49,150.92,216.68,152.89,216.68L152.89,216.68z"/>
	</g>
</g>
<g>
	<g>
		<path class="st8" d="M150.16,223.27c0.58,0,1.62-0.2,1.91-0.79c0.28-0.58-0.24-0.83-0.78-0.83c-0.58,0-1.62,0.2-1.91,0.79
			C149.1,223.02,149.62,223.27,150.16,223.27L150.16,223.27z"/>
	</g>
</g>
<g>
	<g>
		<path class="st8" d="M152.87,208.21c1.63,0,2.24-2.06,0.27-2.06C151.51,206.14,150.9,208.21,152.87,208.21L152.87,208.21z"/>
	</g>
</g>
<g>
	<g>
		<path class="st8" d="M155.46,210.21c0.55,0,1.63-0.21,1.92-0.76c0.3-0.56-0.25-0.72-0.75-0.72c-0.55,0-1.63,0.21-1.92,0.76
			C154.42,210.05,154.96,210.21,155.46,210.21L155.46,210.21z"/>
	</g>
</g>
<g>
	<g>
		<path class="st8" d="M234.56,176.04c0.65,0,1.59-0.18,1.9-0.85c0.27-0.6-0.24-1.09-0.85-1.09c-0.65,0-1.59,0.18-1.9,0.85
			C233.44,175.55,233.95,176.04,234.56,176.04L234.56,176.04z"/>
	</g>
</g>
<g>
	<g>
		<path class="st8" d="M227.74,180.06c4.96,0,4.52-9.99-0.51-9.99C222.27,170.08,222.71,180.06,227.74,180.06L227.74,180.06z"/>
	</g>
</g>
<g>
	<g>
		<path class="st8" d="M158.16,240.55c4.86,0,8.1-8.64,1.86-8.64C155.16,231.91,151.92,240.55,158.16,240.55L158.16,240.55z"/>
	</g>
</g>
<g>
	<g>
		<path class="st8" d="M157.57,230.08c1.93,0,1.93-3,0-3C155.64,227.08,155.63,230.08,157.57,230.08L157.57,230.08z"/>
	</g>
</g>
<g>
	<g>
		<path class="st8" d="M162.13,226.49c3.22,0,3.22-5,0-5C158.91,221.49,158.9,226.49,162.13,226.49L162.13,226.49z"/>
	</g>
</g>
<g>
	<g>
		<path class="st8" d="M159.85,220.38c3.22,0,3.22-5,0-5C156.63,215.38,156.62,220.38,159.85,220.38L159.85,220.38z"/>
	</g>
</g>
<g>
	<g>
		<path class="st8" d="M187.97,188.27c3.22,0,3.22-5,0-5C184.75,183.27,184.74,188.27,187.97,188.27L187.97,188.27z"/>
	</g>
</g>
<g>
	<g>
		<path class="st8" d="M205.45,173.75c3.22,0,3.22-5,0-5C202.23,168.75,202.22,173.75,205.45,173.75L205.45,173.75z"/>
	</g>
</g>
<g>
	<g>
		<path class="st8" d="M251.8,177.57c3.22,0,3.22-5,0-5C248.59,172.57,248.58,177.57,251.8,177.57L251.8,177.57z"/>
	</g>
</g>
<g>
	<g>
		<path class="st8" d="M235.84,184.98c1.93,0,1.93-3,0-3C233.91,181.98,233.91,184.98,235.84,184.98L235.84,184.98z"/>
	</g>
</g>
<g>
	<g>
		<path class="st8" d="M242.68,179.63c1.93,0,1.93-3,0-3C240.75,176.63,240.75,179.63,242.68,179.63L242.68,179.63z"/>
	</g>
</g>
<g>
	<g>
		<path class="st8" d="M240.4,176.57c1.93,0,1.93-3,0-3C238.47,173.57,238.47,176.57,240.4,176.57L240.4,176.57z"/>
	</g>
</g>
<g>
	<g>
		<path class="st8" d="M231.28,171.98c1.93,0,1.93-3,0-3C229.35,168.98,229.35,171.98,231.28,171.98L231.28,171.98z"/>
	</g>
</g>
<g>
	<g>
		<path class="st8" d="M192.53,203.32c1.93,0,1.93-3,0-3C190.6,200.32,190.59,203.32,192.53,203.32L192.53,203.32z"/>
	</g>
</g>
<g>
	<g>
		<path class="st8" d="M196.33,200.27c1.93,0,1.93-3,0-3C194.4,197.27,194.39,200.27,196.33,200.27L196.33,200.27z"/>
	</g>
</g>
<g>
	<g>
		<path class="st8" d="M195.57,207.91c1.93,0,1.93-3,0-3C193.64,204.91,193.63,207.91,195.57,207.91L195.57,207.91z"/>
	</g>
</g>
<g>
	<g>
		<path class="st8" d="M145.41,238.49c1.93,0,1.93-3,0-3C143.48,235.49,143.47,238.49,145.41,238.49L145.41,238.49z"/>
	</g>
</g>
<g>
	<g>
		<path class="st8" d="M149.21,257.6c1.93,0,1.93-3,0-3C147.28,254.6,147.27,257.6,149.21,257.6L149.21,257.6z"/>
	</g>
</g>
<path class="st6" d="M285.26,196.47c0,0-52.07-62.3-114.77-12.23c0,0-12.58-3.07-29.5,38.22s9.74,73.9,9.74,73.9
	S127.58,131.88,285.26,196.47z"/>
<path class="st9" d="M156.05,321.78"/>
<path class="st6" d="M327.91,147.86c0,0,63.97,59.99,52.35,60.85l-32.28,19.88l-52.22-41.89L327.91,147.86z"/>
</svg>
